<svg viewBox="0 0 512 512" fill="#fec544">
    <path d="m336 144a8 8 0 0 0 -8 8v104a8 8 0 0 0 16 0v-104a8 8 0 0 0 -8-8z" />
    <path d="m336 272a8 8 0 0 0 -8 8v8a8 8 0 0 0 16 0v-8a8 8 0 0 0 -8-8z" />
    <path
      d="m496 24h-480a8 8 0 0 0 -8 8v352a8 8 0 0 0 8 8h288v64a32 32 0 0 0 64 0v-64h48a8.008 8.008 0 0 0 5.66-2.34l80-80a8.008 8.008 0 0 0 2.34-5.66v-272a8 8 0 0 0 -8-8zm-144 432a16 16 0 0 1 -32 0v-16h32zm0-32h-32v-8h32zm0-24h-32v-264h32zm0-280h-32v-6.11l.94-1.89h30.12l.94 1.89zm-23.06-24 7.06-14.11 7.06 14.11zm95.06 268.69v-52.69h52.69zm64-68.69h-72a8 8 0 0 0 -8 8v72h-40v-264a8.081 8.081 0 0 0 -.84-3.58l-24-48a8.009 8.009 0 0 0 -14.32 0l-24 48a8.081 8.081 0 0 0 -.84 3.58v264h-280v-336h464z" />
    <path d="m48 72h72a8 8 0 0 0 0-16h-72a8 8 0 0 0 0 16z" />
    <path d="m80 88a8 8 0 0 0 -8-8h-24a8 8 0 0 0 0 16h24a8 8 0 0 0 8-8z" />
    <path
      d="m288 88a104.118 104.118 0 0 0 -104 104 8 8 0 0 0 16 0 88.1 88.1 0 0 1 88-88 8 8 0 0 0 0-16z" />
    <path
      d="m240 184a8 8 0 0 0 -8 8 80.091 80.091 0 0 1 -80 80 8 8 0 0 0 0 16 96.108 96.108 0 0 0 96-96 8 8 0 0 0 -8-8z" />
    <path
      d="m456 192a8 8 0 0 0 16 0 80.091 80.091 0 0 0 -80-80 8 8 0 0 0 0 16 64.072 64.072 0 0 1 64 64z" />
    <path
      d="m168 216a48 48 0 1 0 -48 48 48.053 48.053 0 0 0 48-48zm-48 32a32 32 0 1 1 32-32 32.036 32.036 0 0 1 -32 32z" />
    <path
      d="m264 288a24 24 0 1 0 24 24 24.028 24.028 0 0 0 -24-24zm0 32a8 8 0 1 1 8-8 8.009 8.009 0 0 1 -8 8z" />
    <path
      d="m432 112a24 24 0 1 0 -24-24 24.028 24.028 0 0 0 24 24zm0-32a8 8 0 1 1 -8 8 8.009 8.009 0 0 1 8-8z" />
</svg>